<?xml version="1.0" standalone="no"?>
<!DOCTYPE svg PUBLIC "-//W3C//DTD SVG 20010904//EN"
 "http://www.w3.org/TR/2001/REC-SVG-20010904/DTD/svg10.dtd">
<svg version="1.0" xmlns="http://www.w3.org/2000/svg"
 width="309.000000pt" height="156.000000pt" viewBox="0 0 309.000000 156.000000"
 preserveAspectRatio="xMidYMid meet">

<g transform="translate(0.000000,156.000000) scale(0.100000,-0.100000)"
fill="#000000" stroke="none">
<path d="M25 1550 c3 -5 -1 -10 -9 -10 -14 0 -16 -79 -16 -770 l0 -770 1539 0
c1394 0 1539 1 1545 16 3 9 6 360 6 780 l0 764 -1536 0 c-1021 0 -1533 -3
-1529 -10z m680 -330 c-3 -5 -1 -10 4 -10 6 0 11 -8 11 -17 -1 -17 -1 -17 -11
0 -6 10 -15 14 -22 10 -7 -4 -6 0 2 10 15 18 26 23 16 7z"/>
</g>
</svg>
